<svg id="Layer_1" data-name="Layer 1" xmlns="http://www.w3.org/2000/svg" viewBox="0 0 185.91 88.44"><defs><style>.cls-1{fill:#9a564d;}.cls-2{fill:#0a382b;}</style></defs><polygon class="cls-1" points="0 10.04 10.94 10.04 10.94 51.15 25.97 51.15 25.97 55.69 0 55.69 0 10.04"/><rect class="cls-1" x="32.31" y="26.47" width="10.88" height="29.22"/><polygon class="cls-1" points="54.4 10.04 61.37 10.04 86.77 38.8 86.77 10.04 93.62 10.04 93.62 55.69 88.88 55.69 61.31 24.41 61.31 55.69 54.4 55.69 54.4 10.04"/><path class="cls-1" d="M114.22,40.16h13.37L121,25.82Zm11.13-29,20.79,45.35H135l-5.57-12.16H112.17l-5.82,12.16H98.86l21.75-45.35Z" transform="translate(-0.54 -0.78)"/><path class="cls-1" d="M162.74,56.47a23.62,23.62,0,0,1-7-.93A15.61,15.61,0,0,1,150.65,53a12.65,12.65,0,0,1-3.36-4,15.91,15.91,0,0,1-1.69-5h7.55a11.75,11.75,0,0,0,3.1,5.6,8.67,8.67,0,0,0,6.43,2.27,12.52,12.52,0,0,0,2.75-.29,7.74,7.74,0,0,0,2.4-.92,5.2,5.2,0,0,0,1.73-1.73,5,5,0,0,0,.67-2.62,6.38,6.38,0,0,0-1.76-4.51,19.22,19.22,0,0,0-4.38-3.43,63.62,63.62,0,0,0-5.73-2.94,38.6,38.6,0,0,1-5.72-3.17,18.51,18.51,0,0,1-4.39-4,8.77,8.77,0,0,1-1.76-5.53,10.61,10.61,0,0,1,1.16-4.89A11.2,11.2,0,0,1,151,13.86a16.69,16.69,0,0,1,5.41-2.59,25.87,25.87,0,0,1,7.23-.93,18.8,18.8,0,0,1,6.11.93,16.63,16.63,0,0,1,4.8,2.53A14.65,14.65,0,0,1,178,17.6a19,19,0,0,1,2.18,4.71h-6.85a20.4,20.4,0,0,0-1.37-3,10.41,10.41,0,0,0-2-2.53A8.55,8.55,0,0,0,167.25,15a10.85,10.85,0,0,0-3.93-.64,9.92,9.92,0,0,0-3.55.55,7.19,7.19,0,0,0-2.37,1.4,5,5,0,0,0-1.31,1.95,6.25,6.25,0,0,0-.38,2.12,5.63,5.63,0,0,0,1.82,4.15,21.93,21.93,0,0,0,4.54,3.36C163.88,29,165.85,30,168,31a49.92,49.92,0,0,1,5.88,3.3,19.52,19.52,0,0,1,4.55,4.06,8.32,8.32,0,0,1,1.82,5.34,11.22,11.22,0,0,1-4.45,9.09,16.58,16.58,0,0,1-5.47,2.72,26,26,0,0,1-7.55,1" transform="translate(-0.54 -0.78)"/><path class="cls-1" d="M183.45,3a2.35,2.35,0,0,0-.93.22,2.22,2.22,0,0,0-.72.52,2.11,2.11,0,0,0-.48.73,2.44,2.44,0,0,0-.17.9,2.11,2.11,0,0,0,.19.9,2.27,2.27,0,0,0,.49.75,2.42,2.42,0,0,0,.74.52,2.11,2.11,0,0,0,.9.19,2,2,0,0,0,.93-.2,2.36,2.36,0,0,0,1.21-1.3,2.33,2.33,0,0,0,.18-.9,2.09,2.09,0,0,0-.19-.89,2.76,2.76,0,0,0-.51-.75,2.76,2.76,0,0,0-.75-.51,2.28,2.28,0,0,0-.89-.18m0-.58a2.87,2.87,0,0,1,1.16.24,3.06,3.06,0,0,1,1.6,1.59,2.75,2.75,0,0,1,0,2.27,2.89,2.89,0,0,1-.65.93,3.06,3.06,0,0,1-.95.62,2.93,2.93,0,0,1-1.13.23,2.83,2.83,0,0,1-1.16-.24,3,3,0,0,1-1-.63,3.2,3.2,0,0,1-.64-.94,2.83,2.83,0,0,1-.24-1.16,2.71,2.71,0,0,1,.24-1.14,3.22,3.22,0,0,1,.66-.92,3.06,3.06,0,0,1,1-.62,2.93,2.93,0,0,1,1.13-.23" transform="translate(-0.54 -0.78)"/><path class="cls-1" d="M183.09,5.25h.16a1,1,0,0,0,.25,0,.64.64,0,0,0,.2-.11.76.76,0,0,0,.13-.17.56.56,0,0,0,0-.23.53.53,0,0,0-.13-.38.46.46,0,0,0-.35-.16h-.3Zm-.72-1.36h1.11A1.85,1.85,0,0,1,184,4a.86.86,0,0,1,.36.17.65.65,0,0,1,.22.25.71.71,0,0,1,.07.32.64.64,0,0,1-.18.45,1.22,1.22,0,0,1-.5.29L185,6.85h-.78l-1-1.34h-.13V6.85h-.72Z" transform="translate(-0.54 -0.78)"/><path class="cls-1" d="M27.55,12.58l.22.07.65.22.49.2.61.26.49.24c.19.09.37.19.56.3l.48.28.53.34.45.31c.17.13.34.25.5.39l.43.34c.16.14.32.28.47.43l.39.37.45.47.35.38.42.53q.16.2.3.39l.4.57.26.4c.13.21.25.42.37.63l.21.4.33.68.17.39c.1.24.19.49.28.74s.09.24.13.37.09.23.12.35a.66.66,0,0,0,1.27,0,1.43,1.43,0,0,1,.08-.22c.07-.22.14-.43.22-.65s.12-.33.19-.49.17-.4.26-.6l.24-.5.3-.55c.09-.17.19-.33.28-.49s.22-.35.34-.52.21-.31.33-.47.24-.32.36-.48l.37-.45.39-.44c.14-.14.27-.29.41-.42s.28-.28.43-.41.29-.27.44-.4l.45-.37.48-.36.47-.33.52-.33.48-.28c.19-.11.37-.21.56-.3s.33-.17.49-.24l.6-.26.5-.2.64-.22.22-.07a.66.66,0,0,0,0-1.27l-.34-.12-.38-.13-.74-.29-.39-.17c-.23-.1-.45-.21-.68-.33L46,10.06c-.22-.12-.43-.24-.63-.37L45,9.44c-.19-.13-.39-.26-.57-.4l-.4-.3-.52-.43L43.1,8l-.47-.46-.37-.38-.42-.48-.35-.42c-.13-.17-.26-.33-.38-.51s-.21-.29-.32-.45l-.34-.53-.28-.47-.3-.57c-.08-.16-.16-.32-.23-.49s-.19-.4-.27-.6-.13-.33-.19-.49S39,1.69,39,1.47s-.06-.15-.08-.22a.66.66,0,0,0-1.27,0c0,.12-.08.23-.12.35s-.08.25-.13.37-.18.5-.28.74l-.17.39-.33.68c-.07.13-.14.27-.22.4s-.23.42-.36.62-.17.28-.26.41l-.39.56L35,6.19c-.13.16-.26.33-.4.49l-.38.42c-.13.15-.27.29-.41.43L33.4,8c-.13.13-.27.25-.41.37l-.5.41-.42.32c-.18.13-.36.26-.55.38l-.42.27-.61.36-.41.21c-.22.12-.45.23-.67.33l-.39.17-.74.29-.38.13-.35.12a.67.67,0,0,0,0,1.27" transform="translate(-0.54 -0.78)"/><path class="cls-2" d="M127.91,70.94a8.12,8.12,0,0,0-3.29-.71,8.13,8.13,0,0,0-7.08,4,8.15,8.15,0,0,0,3,11.14,8,8,0,0,0,4.12,1.09,8.36,8.36,0,0,0,3.26-.68A9.2,9.2,0,0,0,130.72,84l1.76,1.91a11.88,11.88,0,0,1-3.72,2.46,11.15,11.15,0,0,1-9.83-.54,10.69,10.69,0,0,1-5.41-9.39A10.38,10.38,0,0,1,115,73a10.62,10.62,0,0,1,4-3.89,11.23,11.23,0,0,1,5.59-1.42,11.44,11.44,0,0,1,4.28.83,10.68,10.68,0,0,1,3.59,2.34l-1.73,2.09a8.54,8.54,0,0,0-2.81-2" transform="translate(-0.54 -0.78)"/><path class="cls-2" d="M144.35,85.85A3.76,3.76,0,0,0,146,83.32v-1.6h-4.69a5.41,5.41,0,0,0-2.83.58,2,2,0,0,0-.92,1.81,2.35,2.35,0,0,0,.94,2,4,4,0,0,0,2.51.72,5.69,5.69,0,0,0,3.34-1M146,89V86.77c-1.19,1.58-3.06,2.36-5.6,2.36a6.44,6.44,0,0,1-2.92-.63,4.71,4.71,0,0,1-1.93-1.76,4.66,4.66,0,0,1-.68-2.51,4.11,4.11,0,0,1,1.59-3.4,7.06,7.06,0,0,1,4.43-1.29H146v-.75A3.31,3.31,0,0,0,145,76.17a4.47,4.47,0,0,0-3-.92A8.72,8.72,0,0,0,137,77L135.8,75a14.38,14.38,0,0,1,3.2-1.62,10.91,10.91,0,0,1,3.49-.5,6.68,6.68,0,0,1,4.63,1.47,5.34,5.34,0,0,1,1.66,4.1l0,10.52Z" transform="translate(-0.54 -0.78)"/><path class="cls-2" d="M157.91,69.56a2.48,2.48,0,0,0-.72,1.91v2.09h4.41V75.7h-4.41V89h-2.82V75.7h-2.08V73.56h2.08V71.83a5.61,5.61,0,0,1,.75-3A4.79,4.79,0,0,1,157.07,67a5.63,5.63,0,0,1,2.6-.62,6.28,6.28,0,0,1,2.78.72l-.67,2.3a4.83,4.83,0,0,0-2.05-.51,2.61,2.61,0,0,0-1.82.66" transform="translate(-0.54 -0.78)"/><path class="cls-2" d="M171.79,66.27l2.91,1.27-3.75,3-2.39-.3Zm3.48,13.67a4.85,4.85,0,0,0-1.45-3.43,4.9,4.9,0,0,0-3.51-1.26,5,5,0,0,0-3.52,1.27,5.33,5.33,0,0,0-1.68,3.42Zm.64-4.83a9,9,0,0,1,1.9,6.1c0,.4,0,.7,0,.91H165.14a5.4,5.4,0,0,0,1.8,3.41,5.31,5.31,0,0,0,3.61,1.27,6.84,6.84,0,0,0,2.65-.51,6.3,6.3,0,0,0,2.13-1.45l1.55,1.6a8.18,8.18,0,0,1-2.85,2,9.55,9.55,0,0,1-3.69.69,8.57,8.57,0,0,1-4.19-1,7.17,7.17,0,0,1-2.84-2.86,8.64,8.64,0,0,1-1-4.2,8.55,8.55,0,0,1,1-4.19A7.37,7.37,0,0,1,166.14,74a8.12,8.12,0,0,1,4.14-1,7.06,7.06,0,0,1,5.63,2.19" transform="translate(-0.54 -0.78)"/></svg>